<svg width="128" height="128" viewBox="0 0 128 128" fill="none" xmlns="http://www.w3.org/2000/svg">
<g clip-path="url(#clip0_557_6)">
<path d="M114.853 114.36C97.333 131.861 32.3314 133.185 13.4855 114.36C-4.14729 96.7748 -4.85261 31.4221 13.4855 13.1042C30.4694 -3.86105 96.8252 -4.90376 114.853 13.1042C133.925 32.1548 130.821 98.4093 114.853 114.36Z" fill="#B480FF"/>
<path d="M80.2929 33.3667C73.5501 33.3667 67.6255 36.9739 63.986 40.6093C60.3749 37.0021 54.422 33.3667 47.6792 33.3667C36.8174 33.3667 27.7612 42.4129 27.7612 55.0664C27.7612 80.4015 54.9298 94.8867 63.986 100.298C73.0423 94.8586 100.211 80.4015 100.211 55.0664C100.211 42.4129 91.2957 33.3667 80.2929 33.3667ZM71.0674 76.7097H56.9611C55.4095 76.7097 54.1399 75.4416 54.1399 73.8916C54.1399 72.3416 55.4095 71.0734 56.9611 71.0734H71.0674C72.6191 71.0734 73.8886 72.3416 73.8886 73.8916C73.8886 75.4416 72.6191 76.7097 71.0674 76.7097ZM78.1205 62.619H49.908C48.3563 62.619 47.0868 61.3508 47.0868 59.8009C47.0868 58.2509 48.3563 56.9827 49.908 56.9827H78.1205C79.6722 56.9827 80.9417 58.2509 80.9417 59.8009C80.9417 61.3508 79.6722 62.619 78.1205 62.619Z" fill="white"/>
</g>
<defs>
<clipPath id="clip0_557_6">
<rect width="128" height="128" fill="white"/>
</clipPath>
</defs>
</svg>
