<?xml version="1.0" encoding="UTF-8"?>
<svg id="Layer_1" xmlns="http://www.w3.org/2000/svg" version="1.1" viewBox="0 0 640 640">
  <!-- Generator: Adobe Illustrator 29.1.0, SVG Export Plug-In . SVG Version: 2.1.0 Build 142)  -->
  <defs>
    <style>
      .st0, .st1 {
        fill-rule: evenodd;
      }

      .st1 {
        fill: #94c13d;
      }
    </style>
  </defs>
  <path class="st0" d="M169.2,148.3c9.2,2.3,18.6-3.3,20.9-12.5,9.9-39.5,34-67.3,63.7-83.8,21.5-11.8,46.1-17.8,70.4-17.6,24.2.1,48.3,6.4,69.1,18.6,27.8,16.4,49.7,43.8,58.3,82.4,2,9.3,11.3,15,20.5,13,9.3-2,15-11.3,13-20.5-10.9-48.8-39-83.5-74.3-104.5C384.7,8,354.5.3,324.4,0c-30.2-.3-60.5,7.1-87.1,21.8-37.6,20.8-68,56-80.5,105.5-2.3,9.2,3.3,18.6,12.5,20.9h-.1Z"/>
  <path class="st1" d="M586.8,222.9c-178.1-45.6-356.2-47.7-534.3.4-17.1,4.6-27.6,21.6-24.7,39.1l56.4,341.3c3.3,20,22.5,36.3,42.8,36.3h146.7c11.5,0,17.2-13.9,9-21.9l-89.9-90c-31.6-35.3-30.3-89.5,3.6-123.4,33.9-33.9,88.2-35.1,123.5-3.4,35.3-31.6,89.6-30.6,123.5,3.4s35,88.1,3.6,123.4l-89.9,90c-8.1,8.1-2.3,21.9,9,21.9h146.7c21.3,0,39.3-15.4,42.8-36.3l56.4-341.3c2.9-17.7-8-35-25.5-39.5h.4Z"/>
</svg>