<svg xmlns="http://www.w3.org/2000/svg" width="173" height="53" viewBox="0 0 173 53" fill="none"><g clip-path="url(#clip0_392_181)"><path d="M52.6499 17.03L55.0999 4.05H57.7299L56.7399 9.23L56.7799 9.25C57.5099 8.43 58.4399 7.9 59.6299 7.9C61.0199 7.9 61.8799 8.78 61.8799 10.31C61.8799 10.73 61.8099 11.41 61.7199 11.92L60.7499 17.04H58.1199L59.0299 12.14C59.0999 11.79 59.1599 11.41 59.1599 11.02C59.1599 10.43 58.8999 10.01 58.2499 10.01C57.3399 10.01 56.3999 11.13 56.0599 12.94L55.2899 17.04H52.6599L52.6499 17.03Z" fill="#2A3542"></path><path d="M68.7999 17.03C68.8199 16.5 68.8699 15.9 68.9299 15.26H68.8799C68.0599 16.74 66.9199 17.24 65.8799 17.24C64.2699 17.24 63.1699 16 63.1699 14.13C63.1699 11.11 65.1599 7.89 69.5699 7.89C70.6299 7.89 71.7799 8.09 72.5299 8.33L71.5799 13.01C71.3599 14.16 71.1999 15.92 71.2299 17.03H68.7999ZM69.5699 9.95C69.3699 9.91 69.1099 9.88 68.8599 9.88C67.1599 9.88 65.9199 11.96 65.9199 13.63C65.9199 14.51 66.2699 15.11 66.9999 15.11C67.7899 15.11 68.7599 14.21 69.1599 12.02L69.5799 9.95H69.5699Z" fill="#2A3542"></path><path d="M72.46 20.65L74.18 11.54C74.38 10.48 74.6 9 74.71 8.08H77.07L76.91 9.38H76.95C77.68 8.41 78.74 7.88 79.82 7.88C81.76 7.88 82.69 9.43 82.69 11.26C82.69 14.37 80.62 17.22 77.51 17.22C76.78 17.22 76.16 17.04 75.85 16.85H75.81L75.08 20.64H72.46V20.65ZM76.21 14.8C76.5 15.07 76.9 15.24 77.42 15.24C78.83 15.24 79.93 13.23 79.93 11.47C79.93 10.76 79.64 10.01 78.78 10.01C77.79 10.01 76.88 11.13 76.55 12.88L76.22 14.8H76.21Z" fill="#2A3542"></path><path d="M82.74 20.65L84.46 11.54C84.66 10.48 84.88 9 84.99 8.08H87.35L87.19 9.38H87.23C87.96 8.41 89.02 7.88 90.1 7.88C92.04 7.88 92.97 9.43 92.97 11.26C92.97 14.37 90.9 17.22 87.79 17.22C87.06 17.22 86.44 17.04 86.13 16.85H86.09L85.36 20.64H82.74V20.65ZM86.49 14.8C86.78 15.07 87.18 15.24 87.7 15.24C89.11 15.24 90.21 13.23 90.21 11.47C90.21 10.76 89.92 10.01 89.06 10.01C88.07 10.01 87.16 11.13 86.83 12.88L86.5 14.8H86.49Z" fill="#2A3542"></path><path d="M93.74 17.03L95.44 8.09H98.07L96.37 17.03H93.74ZM95.8 5.69C95.82 4.79 96.51 4.19 97.32 4.19C98.13 4.19 98.64 4.7 98.64 5.49C98.64 6.42 97.93 6.97 97.09 6.97C96.36 6.97 95.81 6.48 95.81 5.69H95.8Z" fill="#2A3542"></path><path d="M98.8899 17.03L100.19 10.08H99.0399L99.4199 8.09H100.57L100.66 7.61C100.84 6.57 101.26 5.45 102.16 4.7C102.87 4.08 103.82 3.84 104.7 3.84C105.34 3.84 105.82 3.93 106.11 4.06L105.65 6.16C105.41 6.05 105.14 6 104.79 6C103.95 6 103.42 6.75 103.25 7.65L103.16 8.09H104.93L104.55 10.08H102.79L101.49 17.03H98.8699H98.8899Z" fill="#2A3542"></path><path d="M108.04 8.08L108.59 11.98C108.72 12.89 108.81 13.53 108.88 14.1H108.92C109.12 13.57 109.32 12.98 109.71 12.02L111.34 8.09H114.12L110.92 14.51C109.73 16.89 108.67 18.52 107.48 19.63C106.44 20.62 105.19 21.06 104.61 21.15L104.02 18.9C104.44 18.77 105.03 18.55 105.54 18.19C106.14 17.77 106.66 17.24 106.98 16.64C107.07 16.51 107.07 16.4 107.03 16.2L105.26 8.1H108.04V8.08Z" fill="#2A3542"></path><path d="M79.19 29.6L73.6299 46.62H69.9199L66.07 37.82L62.29 46.62H58.58L52.95 29.6H57.63L60.99 39.74L65.4199 29.72H66.72L71.3 39.78L74.6399 29.6H79.1999H79.19Z" fill="black"></path><path d="M81.72 29.6H86.32V46.62H81.72V29.6ZM81.73 23.05H86.32V27.33H81.73V23.05Z" fill="black"></path><path d="M96.7799 47.11C92.5099 47.11 89.6499 44.67 89.6299 41.02H94.1199C94.1399 42.54 95.2999 43.29 96.9499 43.29C98.2299 43.29 99.3699 42.71 99.3699 41.57C99.3699 40.43 97.8899 40.05 96.0899 39.75C93.3699 39.3 89.9099 38.57 89.9099 34.56C89.9099 31.34 92.6499 29.12 96.7599 29.12C100.87 29.12 103.57 31.41 103.58 34.81H99.2099C99.1899 33.46 98.2399 32.79 96.6399 32.79C95.2099 32.79 94.3599 33.45 94.3599 34.42C94.3599 35.55 95.8099 35.82 97.5799 36.14C100.36 36.64 103.9 37.23 103.9 41.37C103.9 44.84 101.06 47.1 96.7599 47.1L96.7799 47.11Z" fill="black"></path><path d="M117.03 29.2C120.88 29.2 123.28 31.95 123.28 36.28V46.62H118.68V37.05C118.68 34.5 117.78 33.24 115.71 33.24C113.41 33.24 111.89 34.91 111.89 37.68V46.63H107.29V23.47H111.89V31.18C113.18 29.95 115 29.2 117.03 29.2Z" fill="black"></path><path d="M127.49 23.47H132.09V46.63H127.49V23.47Z" fill="black"></path><path d="M136.51 29.6H141.11V46.62H136.51V29.6ZM136.52 23.05H141.11V27.33H136.52V23.05Z" fill="black"></path><path d="M151.57 47.11C147.3 47.11 144.44 44.67 144.42 41.02H148.91C148.93 42.54 150.09 43.29 151.74 43.29C153.02 43.29 154.16 42.71 154.16 41.57C154.16 40.43 152.68 40.05 150.88 39.75C148.16 39.3 144.7 38.57 144.7 34.56C144.7 31.34 147.44 29.12 151.55 29.12C155.66 29.12 158.36 31.41 158.37 34.81H154C153.98 33.46 153.03 32.79 151.43 32.79C150 32.79 149.15 33.45 149.15 34.42C149.15 35.55 150.6 35.82 152.37 36.14C155.15 36.64 158.69 37.23 158.69 41.37C158.69 44.84 155.85 47.1 151.55 47.1L151.57 47.11Z" fill="black"></path><path d="M172.33 42.53V46.63H169.06C165.31 46.63 163.01 44.33 163.01 40.55V33.3H159.93V32.3L166.65 25.15H167.53V29.59H172.23V33.29H167.61V39.92C167.61 41.56 168.56 42.51 170.23 42.51H172.32L172.33 42.53Z" fill="black"></path><path fill-rule="evenodd" clip-rule="evenodd" d="M11.1502 11.65C11.8702 11.83 12.6102 11.39 12.7902 10.67C13.5702 7.57 15.4602 5.38 17.7902 4.09C19.4802 3.16 21.4102 2.69 23.3202 2.71C25.2202 2.72 27.1102 3.21 28.7502 4.17C30.9302 5.46 32.6502 7.61 33.3302 10.64C33.4902 11.37 34.2202 11.82 34.9402 11.66C35.6702 11.5 36.1202 10.77 35.9602 10.05C35.1002 6.22 32.9002 3.49 30.1202 1.84C28.0802 0.63 25.7102 0.0200004 23.3402 4.13565e-07C20.9702 -0.0199996 18.5902 0.56 16.5002 1.71C13.5502 3.34 11.1602 6.11 10.1802 10C10.0002 10.72 10.4402 11.46 11.1602 11.64L11.1502 11.65Z" fill="black"></path><path fill-rule="evenodd" clip-rule="evenodd" d="M43.9501 17.51C29.9601 13.93 15.9701 13.76 1.98012 17.54C0.640116 17.9 -0.189884 19.24 0.0401161 20.61L4.47012 47.42C4.73012 48.99 6.24012 50.27 7.83012 50.27H19.3501C20.2501 50.27 20.7001 49.18 20.0601 48.55L13.0001 41.48C10.5201 38.71 10.6201 34.45 13.2801 31.79C15.9401 29.13 20.2101 29.03 22.9801 31.52C25.7501 29.04 30.0201 29.12 32.6801 31.79C35.3401 34.46 35.4301 38.71 32.9601 41.48L25.9001 48.55C25.2601 49.19 25.7201 50.27 26.6101 50.27H38.1301C39.8001 50.27 41.2201 49.06 41.4901 47.42L45.9201 20.61C46.1501 19.22 45.2901 17.86 43.9201 17.51H43.9501Z" fill="#94C13D"></path></g><defs><clipPath id="clip0_392_181"><rect width="172.33" height="52.11" fill="white"></rect></clipPath></defs></svg>