<svg xmlns="http://www.w3.org/2000/svg" width="182" height="52" viewBox="0 0 182 52" fill="none"><path d="M60.6499 17.0298L63.0999 4.0498H65.7299L64.7399 9.2298L64.7799 9.2498C65.5099 8.4298 66.4399 7.8998 67.6299 7.8998C69.0199 7.8998 69.8799 8.7798 69.8799 10.3098C69.8799 10.7298 69.8099 11.4098 69.7199 11.9198L68.7499 17.0398H66.1199L67.0299 12.1398C67.0999 11.7898 67.1599 11.4098 67.1599 11.0198C67.1599 10.4298 66.8999 10.0098 66.2499 10.0098C65.3399 10.0098 64.3999 11.1298 64.0599 12.9398L63.2899 17.0398H60.6599L60.6499 17.0298Z" fill="#2A3542"></path><path d="M76.7999 17.0296C76.8199 16.4996 76.8699 15.8996 76.9299 15.2596H76.8799C76.0599 16.7396 74.9199 17.2396 73.8799 17.2396C72.2699 17.2396 71.1699 15.9996 71.1699 14.1296C71.1699 11.1096 73.1599 7.88965 77.5699 7.88965C78.6299 7.88965 79.7799 8.08965 80.5299 8.32965L79.5799 13.0096C79.3599 14.1596 79.1999 15.9196 79.2299 17.0296H76.7999ZM77.5699 9.94965C77.3699 9.90965 77.1099 9.87965 76.8599 9.87965C75.1599 9.87965 73.9199 11.9596 73.9199 13.6296C73.9199 14.5096 74.2699 15.1096 74.9999 15.1096C75.7899 15.1096 76.7599 14.2096 77.1599 12.0196L77.5799 9.94965H77.5699Z" fill="#2A3542"></path><path d="M80.46 20.6499L82.18 11.5399C82.38 10.4799 82.6 8.99988 82.71 8.07988H85.07L84.91 9.37988H84.95C85.68 8.40988 86.74 7.87988 87.82 7.87988C89.76 7.87988 90.69 9.42988 90.69 11.2599C90.69 14.3699 88.62 17.2199 85.51 17.2199C84.78 17.2199 84.16 17.0399 83.85 16.8499H83.81L83.08 20.6399H80.46V20.6499ZM84.21 14.7999C84.5 15.0699 84.9 15.2399 85.42 15.2399C86.83 15.2399 87.93 13.2299 87.93 11.4699C87.93 10.7599 87.64 10.0099 86.78 10.0099C85.79 10.0099 84.88 11.1299 84.55 12.8799L84.22 14.7999H84.21Z" fill="#2A3542"></path><path d="M90.74 20.6499L92.46 11.5399C92.66 10.4799 92.88 8.99988 92.99 8.07988H95.35L95.19 9.37988H95.23C95.96 8.40988 97.02 7.87988 98.1 7.87988C100.04 7.87988 100.97 9.42988 100.97 11.2599C100.97 14.3699 98.9 17.2199 95.79 17.2199C95.06 17.2199 94.44 17.0399 94.13 16.8499H94.09L93.36 20.6399H90.74V20.6499ZM94.49 14.7999C94.78 15.0699 95.18 15.2399 95.7 15.2399C97.11 15.2399 98.21 13.2299 98.21 11.4699C98.21 10.7599 97.92 10.0099 97.06 10.0099C96.07 10.0099 95.16 11.1299 94.83 12.8799L94.5 14.7999H94.49Z" fill="#2A3542"></path><path d="M101.74 17.0299L103.44 8.08994H106.07L104.37 17.0299H101.74ZM103.8 5.68994C103.82 4.78994 104.51 4.18994 105.32 4.18994C106.13 4.18994 106.64 4.69994 106.64 5.48994C106.64 6.41994 105.93 6.96994 105.09 6.96994C104.36 6.96994 103.81 6.47994 103.81 5.68994H103.8Z" fill="#2A3542"></path><path d="M106.89 17.0298L108.19 10.0798H107.04L107.42 8.08984H108.57L108.66 7.60984C108.84 6.56984 109.26 5.44984 110.16 4.69984C110.87 4.07984 111.82 3.83984 112.7 3.83984C113.34 3.83984 113.82 3.92984 114.11 4.05984L113.65 6.15984C113.41 6.04984 113.14 5.99984 112.79 5.99984C111.95 5.99984 111.42 6.74984 111.25 7.64984L111.16 8.08984H112.93L112.55 10.0798H110.79L109.49 17.0298H106.87H106.89Z" fill="#2A3542"></path><path d="M116.04 8.08008L116.59 11.9801C116.72 12.8901 116.81 13.5301 116.88 14.1001H116.92C117.12 13.5701 117.32 12.9801 117.71 12.0201L119.34 8.09008H122.12L118.92 14.5101C117.73 16.8901 116.67 18.5201 115.48 19.6301C114.44 20.6201 113.19 21.0601 112.61 21.1501L112.02 18.9001C112.44 18.7701 113.03 18.5501 113.54 18.1901C114.14 17.7701 114.66 17.2401 114.98 16.6401C115.07 16.5101 115.07 16.4001 115.03 16.2001L113.26 8.10008H116.04V8.08008Z" fill="#2A3542"></path><path d="M87.19 29.5996L81.6299 46.6196H77.9199L74.07 37.8196L70.29 46.6196H66.58L60.95 29.5996H65.63L68.99 39.7396L73.4199 29.7196H74.72L79.3 39.7796L82.6399 29.5996H87.1999H87.19Z" fill="black"></path><path d="M89.72 29.5998H94.32V46.6198H89.72V29.5998ZM89.73 23.0498H94.32V27.3298H89.73V23.0498Z" fill="black"></path><path d="M104.78 47.1096C100.51 47.1096 97.6499 44.6696 97.6299 41.0196H102.12C102.14 42.5396 103.3 43.2896 104.95 43.2896C106.23 43.2896 107.37 42.7096 107.37 41.5696C107.37 40.4296 105.89 40.0496 104.09 39.7496C101.37 39.2996 97.9099 38.5696 97.9099 34.5596C97.9099 31.3396 100.65 29.1196 104.76 29.1196C108.87 29.1196 111.57 31.4096 111.58 34.8096H107.21C107.19 33.4596 106.24 32.7896 104.64 32.7896C103.21 32.7896 102.36 33.4496 102.36 34.4196C102.36 35.5496 103.81 35.8196 105.58 36.1396C108.36 36.6396 111.9 37.2296 111.9 41.3696C111.9 44.8396 109.06 47.0996 104.76 47.0996L104.78 47.1096Z" fill="black"></path><path d="M125.03 29.1997C128.88 29.1997 131.28 31.9497 131.28 36.2797V46.6197H126.68V37.0497C126.68 34.4997 125.78 33.2397 123.71 33.2397C121.41 33.2397 119.89 34.9097 119.89 37.6797V46.6297H115.29V23.4697H119.89V31.1797C121.18 29.9497 123 29.1997 125.03 29.1997Z" fill="black"></path><path d="M135.49 23.4697H140.09V46.6297H135.49V23.4697Z" fill="black"></path><path d="M144.51 29.5998H149.11V46.6198H144.51V29.5998ZM144.52 23.0498H149.11V27.3298H144.52V23.0498Z" fill="black"></path><path d="M159.57 47.1096C155.3 47.1096 152.44 44.6696 152.42 41.0196H156.91C156.93 42.5396 158.09 43.2896 159.74 43.2896C161.02 43.2896 162.16 42.7096 162.16 41.5696C162.16 40.4296 160.68 40.0496 158.88 39.7496C156.16 39.2996 152.7 38.5696 152.7 34.5596C152.7 31.3396 155.44 29.1196 159.55 29.1196C163.66 29.1196 166.36 31.4096 166.37 34.8096H162C161.98 33.4596 161.03 32.7896 159.43 32.7896C158 32.7896 157.15 33.4496 157.15 34.4196C157.15 35.5496 158.6 35.8196 160.37 36.1396C163.15 36.6396 166.69 37.2296 166.69 41.3696C166.69 44.8396 163.85 47.0996 159.55 47.0996L159.57 47.1096Z" fill="black"></path><path d="M180.33 42.5299V46.6299H177.06C173.31 46.6299 171.01 44.3299 171.01 40.5499V33.2999H167.93V32.2999L174.65 25.1499H175.53V29.5899H180.23V33.2899H175.61V39.9199C175.61 41.5599 176.56 42.5099 178.23 42.5099H180.32L180.33 42.5299Z" fill="black"></path><g clip-path="url(#clip0_557_9)"><path d="M43.9673 45.7788C37.2604 52.4783 12.377 52.9853 5.16258 45.7788C-1.58748 39.047 -1.85748 14.0291 5.16258 7.01679C11.6642 0.522295 37.066 0.123131 43.9673 7.01679C51.2682 14.3096 50.0801 39.6727 43.9673 45.7788Z" fill="#B480FF"></path><path d="M30.737 14.7734C28.1557 14.7734 25.8877 16.1543 24.4945 17.546C23.1121 16.1651 20.8333 14.7734 18.2521 14.7734C14.094 14.7734 10.6272 18.2365 10.6272 23.0804C10.6272 32.7789 21.0277 38.3241 24.4945 40.3954C27.9613 38.3133 38.3618 32.7789 38.3618 23.0804C38.3618 18.2365 34.949 14.7734 30.737 14.7734ZM27.2053 31.3657H21.8053C21.2113 31.3657 20.7253 30.8802 20.7253 30.2869C20.7253 29.6935 21.2113 29.208 21.8053 29.208H27.2053C27.7993 29.208 28.2853 29.6935 28.2853 30.2869C28.2853 30.8802 27.7993 31.3657 27.2053 31.3657ZM29.9054 25.9716H19.1053C18.5113 25.9716 18.0253 25.4861 18.0253 24.8928C18.0253 24.2994 18.5113 23.8139 19.1053 23.8139H29.9054C30.4994 23.8139 30.9854 24.2994 30.9854 24.8928C30.9854 25.4861 30.4994 25.9716 29.9054 25.9716Z" fill="white"></path></g><defs><clipPath id="clip0_557_9"><rect width="49" height="49" fill="white" transform="translate(0 2)"></rect></clipPath></defs></svg>